<svg width="133" height="163" viewBox="0 0 135 163" fill="none" xmlns="http://www.w3.org/2000/svg">
<path fill-rule="evenodd" clip-rule="evenodd" d="M74.5804 0.212939C74.5804 0.612449 77.8511 3.19608 78.3566 3.19608C78.6337 3.19608 79.5967 3.81931 80.4963 4.58118C81.7463 5.63868 82.1329 6.29947 82.1329 7.37775C82.1329 8.3945 82.3401 8.78922 82.8744 8.78922C84.2027 8.78922 84.965 9.87189 84.965 11.7572C84.965 12.7615 84.7526 13.5833 84.493 13.5833C83.5433 13.5833 84.0578 14.8901 85.4371 15.9804C86.6134 16.9105 86.8531 17.411 86.8531 18.9372C86.8531 19.9479 87.0656 20.7745 87.3252 20.7745C87.5848 20.7745 87.7972 21.3138 87.7972 21.973C87.7972 22.6322 88.0096 23.1716 88.2692 23.1716C88.5661 23.1716 88.7413 25.8055 88.7413 30.2745C88.7413 36.9191 88.6804 37.4145 87.7972 37.9534C87.0184 38.4285 86.8531 38.9878 86.8531 41.1495C86.8531 43.3113 86.6879 43.8706 85.9091 44.3456C85.1675 44.7978 84.965 45.3799 84.965 47.0591C84.965 49.26 84.2778 50.3382 82.8744 50.3382C82.2825 50.3382 82.1329 50.8224 82.1329 52.7353C82.1329 54.0669 81.9233 55.1324 81.6608 55.1324C81.4012 55.1324 81.1888 56.0312 81.1888 57.1299C81.1888 58.2286 81.4012 59.1275 81.6608 59.1275C81.9204 59.1275 82.1329 59.8466 82.1329 60.7255C82.1329 61.6044 82.3453 62.3235 82.6049 62.3235C82.8645 62.3235 83.0769 62.1438 83.0769 61.924C83.0769 61.7043 83.5017 61.5245 84.021 61.5245C84.5402 61.5245 84.965 61.3447 84.965 61.125C84.965 60.9053 85.5555 60.7255 86.2768 60.7255C87.0471 60.7255 87.8694 60.3955 88.2692 59.9265C88.6435 59.487 89.2426 59.1275 89.6003 59.1275C89.9577 59.1275 90.846 58.5881 91.5734 57.9289C92.3008 57.2697 93.1448 56.7304 93.4488 56.7304C94.1988 56.7304 95.3496 55.7124 95.3496 55.0493C95.3496 54.7524 95.7745 54.2506 96.2937 53.9338C96.8129 53.617 97.2378 53.1152 97.2378 52.8184C97.2378 52.0869 98.4183 51.1373 99.3284 51.1373C99.7362 51.1373 100.07 50.8172 100.07 50.4265C100.07 50.0354 100.495 49.4565 101.014 49.1397C101.568 48.8013 101.958 48.1054 101.958 47.4534C101.958 46.8429 102.17 46.3431 102.43 46.3431C102.69 46.3431 102.902 45.8038 102.902 45.1446C102.902 44.2126 103.112 43.9461 103.846 43.9461C104.699 43.9461 104.79 43.6796 104.79 41.1827C104.79 39.3465 104.988 38.3517 105.38 38.2167C105.826 38.0641 105.797 37.9015 105.262 37.5539C104.727 37.2063 104.699 37.0438 105.144 36.8911C105.536 36.7561 105.734 35.7613 105.734 33.9252C105.734 32.3491 105.937 31.1618 106.206 31.1618C106.466 31.1618 106.678 30.6224 106.678 29.9632C106.678 29.304 106.466 28.7647 106.206 28.7647C105.944 28.7647 105.734 27.6992 105.734 26.3676C105.734 25.0361 105.525 23.9706 105.262 23.9706C104.993 23.9706 104.79 22.7721 104.79 21.174C104.79 18.6439 104.701 18.3775 103.846 18.3775C103.059 18.3775 102.902 18.111 102.902 16.7794C102.902 15.9005 102.69 15.1814 102.43 15.1814C102.17 15.1814 101.958 14.8218 101.958 14.3824C101.958 13.9429 101.746 13.5833 101.486 13.5833C101.226 13.5833 101.014 12.9413 101.014 12.1567C101.014 10.3729 100.119 9.58824 98.0836 9.58824C97.0438 9.58824 96.2692 9.31457 95.8217 8.78922C95.4474 8.34976 94.7634 7.9902 94.3013 7.9902C93.7764 7.9902 93.4615 7.69096 93.4615 7.19118C93.4615 6.56954 93.1467 6.39216 92.0454 6.39216C91.0726 6.39216 90.6294 6.1956 90.6294 5.76453C90.6294 4.95712 89.4927 3.9951 88.5388 3.9951C88.1309 3.9951 87.7972 3.81532 87.7972 3.59559C87.7972 3.37586 87.3724 3.19608 86.8531 3.19608C86.3339 3.19608 85.9091 3.0163 85.9091 2.79657C85.9091 2.57444 84.6502 2.39706 83.0769 2.39706C81.5037 2.39706 80.2448 2.21968 80.2448 1.99755C80.2448 1.77782 79.8199 1.59804 79.3007 1.59804C78.7815 1.59804 78.3566 1.41826 78.3566 1.19853C78.3566 0.978799 77.9318 0.79902 77.4126 0.79902C76.8934 0.79902 76.4685 0.61924 76.4685 0.39951C76.4685 0.179779 76.0437 0 75.5245 0C75.0052 0 74.5804 0.0958827 74.5804 0.212939ZM122.727 1.19853C122.727 1.41826 121.712 1.59804 120.471 1.59804C118.757 1.59804 118.052 1.7898 117.535 2.39706C117.161 2.83652 116.477 3.19608 116.015 3.19608C114.999 3.19608 114.955 3.46655 115.849 4.22322C116.272 4.58158 117.503 4.79412 119.154 4.79412C121.23 4.79412 121.783 4.92636 121.783 5.42175C121.783 6.192 122.905 7.19118 123.77 7.19118C124.12 7.19118 124.713 7.55074 125.087 7.9902C125.561 8.54671 126.309 8.78922 127.552 8.78922C129.219 8.78922 129.336 8.86752 129.336 9.98775V11.1863H132.168H135V9.98775C135 9.07287 134.786 8.78922 134.095 8.78922C133.598 8.78922 133.067 8.56469 132.915 8.28983C132.695 7.89032 132.585 7.89032 132.365 8.28983C131.624 9.63258 127.448 7.86675 127.448 6.21038C127.448 5.8708 127.235 5.59314 126.976 5.59314C126.716 5.59314 126.503 5.23358 126.503 4.79412C126.503 4.33388 126.818 3.9951 127.245 3.9951C128.199 3.9951 129.336 3.03308 129.336 2.22567C129.336 1.73867 128.807 1.59804 126.976 1.59804C125.677 1.59804 124.615 1.41826 124.615 1.19853C124.615 0.978799 124.191 0.79902 123.671 0.79902C123.152 0.79902 122.727 0.978799 122.727 1.19853ZM42.4825 1.99755C42.4825 2.21728 41.892 2.39706 41.1707 2.39706C40.4004 2.39706 39.5781 2.72705 39.1783 3.19608C38.644 3.82371 37.9562 3.9951 35.9723 3.9951C34.2423 3.9951 33.1982 4.20524 32.6587 4.66228C32.0852 5.14728 32.0299 5.37421 32.4562 5.49446C32.7786 5.58555 33.042 6.00423 33.042 6.42532C33.042 7.0098 32.7068 7.19118 31.6259 7.19118C30.847 7.19118 30.2098 7.0114 30.2098 6.79167C30.2098 6.57194 29.785 6.39216 29.2657 6.39216C28.6365 6.39216 28.3217 6.65863 28.3217 7.19118C28.3217 7.64542 28.0068 7.9902 27.5924 7.9902C26.7003 7.9902 24.5455 9.75164 24.5455 10.4807C24.5455 10.7716 24.1206 11.269 23.6014 11.5858C23.0822 11.9026 22.6573 12.4419 22.6573 12.7843C22.6573 13.1267 23.0822 13.666 23.6014 13.9828C24.1206 14.2997 24.5455 14.6988 24.5455 14.8702C24.5455 15.0411 24.1206 15.1814 23.6014 15.1814C22.9722 15.1814 22.6573 14.9149 22.6573 14.3824C22.6573 13.8498 22.3425 13.5833 21.7133 13.5833C21.0841 13.5833 20.7692 13.8498 20.7692 14.3824C20.7692 14.8218 20.5568 15.1814 20.2972 15.1814C20.0376 15.1814 19.8252 15.5409 19.8252 15.9804C19.8252 16.5129 19.5103 16.7794 18.8811 16.7794C18.0267 16.7794 17.9371 17.0459 17.9371 19.576C17.9371 21.174 17.7346 22.3725 17.465 22.3725C17.1832 22.3725 16.993 23.9135 16.993 26.1963C16.993 30.135 16.5606 31.1618 14.9024 31.1618C14.3105 31.1618 14.1608 31.646 14.1608 33.5588C14.1608 34.8904 14.3704 35.9559 14.6329 35.9559C14.8925 35.9559 15.1049 36.675 15.1049 37.5539C15.1049 38.4328 15.3173 39.152 15.5769 39.152C15.8365 39.152 16.049 39.8315 16.049 40.6617C16.049 41.7132 16.3355 42.3464 16.993 42.7476C17.6326 43.1379 17.9371 43.7819 17.9371 44.7451C17.9371 45.7083 18.2415 46.3523 18.8811 46.7426C19.4003 47.0595 19.8252 47.6383 19.8252 48.0295C19.8252 48.4202 20.0376 48.7402 20.2972 48.7402C20.5568 48.7402 20.7692 49.0227 20.7692 49.3678C20.7692 50.1752 21.9059 51.1373 22.8598 51.1373C23.4102 51.1373 23.6014 50.7258 23.6014 49.5392V47.9412H25.9615C27.2596 47.9412 28.3217 47.7614 28.3217 47.5417C28.3217 47.3219 29.3837 47.1422 30.6818 47.1422C31.9799 47.1422 33.042 46.9624 33.042 46.7426C33.042 46.5229 33.4668 46.3431 33.986 46.3431C34.7205 46.3431 34.9301 46.0767 34.9301 45.1446C34.9301 44.4854 34.7177 43.9461 34.458 43.9461C34.1984 43.9461 33.986 43.4067 33.986 42.7476C33.986 42.0884 33.7736 41.549 33.514 41.549C33.2544 41.549 33.042 41.0097 33.042 40.3505C33.042 39.6913 33.2544 39.152 33.514 39.152C33.8043 39.152 33.986 37.1544 33.986 33.9583C33.986 30.7623 34.1677 28.7647 34.458 28.7647C34.7177 28.7647 34.9301 28.2254 34.9301 27.5662C34.9301 26.907 35.1425 26.3676 35.4021 26.3676C35.6881 26.3676 35.8741 24.6366 35.8741 21.973C35.8741 19.3095 36.0601 17.5784 36.3462 17.5784C36.6058 17.5784 36.8182 17.2189 36.8182 16.7794C36.8182 16.34 37.0306 15.9804 37.2902 15.9804C37.5498 15.9804 37.7622 15.1538 37.7622 14.143C37.7622 12.6169 38.002 12.1163 39.1783 11.1863C40.1809 10.3936 40.5944 9.69331 40.5944 8.78922C40.5944 7.88513 41.0079 7.18478 42.0105 6.39216C42.8162 5.75534 43.4266 4.86283 43.4266 4.3227C43.4266 3.80014 43.8514 3.11338 44.3706 2.79657C45.6984 1.98636 45.5455 1.59804 43.8986 1.59804C43.1198 1.59804 42.4825 1.77782 42.4825 1.99755ZM57.5874 21.174C57.5874 21.3938 57.1626 21.5735 56.6434 21.5735C56.1241 21.5735 55.6993 21.7533 55.6993 21.973C55.6993 22.1928 55.2745 22.3725 54.7552 22.3725C54.126 22.3725 53.8112 22.639 53.8112 23.1716C53.8112 23.7041 53.4963 23.9706 52.8671 23.9706C52.0803 23.9706 51.9231 24.2371 51.9231 25.5686C51.9231 26.4475 52.1355 27.1667 52.3951 27.1667C52.6547 27.1667 52.8671 27.5262 52.8671 27.9657C52.8671 28.4051 53.0795 28.7647 53.3392 28.7647C53.5988 28.7647 53.8112 29.1243 53.8112 29.5637C53.8112 30.0032 54.0236 30.3627 54.2832 30.3627C54.5428 30.3627 54.7552 30.9021 54.7552 31.5613C54.7552 32.2205 54.5428 32.7598 54.2832 32.7598C54.0236 32.7598 53.8112 32.4002 53.8112 31.9608C53.8112 31.4282 53.4963 31.1618 52.8671 31.1618C52.1327 31.1618 51.9231 31.4282 51.9231 32.3603C51.9231 33.0195 52.1355 33.5588 52.3951 33.5588C52.6547 33.5588 52.8671 33.8365 52.8671 34.1761C52.8671 34.9755 54.9695 36.7549 55.9141 36.7549C56.3153 36.7549 56.6434 36.9347 56.6434 37.1544C56.6434 37.3741 57.0215 37.5539 57.4831 37.5539C57.9452 37.5539 58.6292 37.9135 59.0035 38.3529C59.3788 38.7936 60.2256 39.152 60.8916 39.152C61.5576 39.152 62.4045 38.7936 62.7797 38.3529C63.154 37.9135 63.838 37.5539 64.3001 37.5539C64.7618 37.5539 65.1399 37.3741 65.1399 37.1544C65.1399 36.9347 65.4679 36.7549 65.8691 36.7549C66.9756 36.7549 68.9161 34.9144 68.9161 33.8649C68.9161 33.3543 69.3409 32.6771 69.8601 32.3603C70.6777 31.8617 70.8042 31.326 70.8042 28.3652C70.8042 25.4044 70.6777 24.8687 69.8601 24.3701C69.3409 24.0533 68.9161 23.5559 68.9161 23.2651C68.9161 22.5359 66.7613 20.7745 65.8691 20.7745C65.4679 20.7745 65.1399 20.9543 65.1399 21.174C65.1399 21.3938 64.0778 21.5735 62.7797 21.5735C61.4816 21.5735 60.4196 21.3938 60.4196 21.174C60.4196 20.9543 59.7823 20.7745 59.0035 20.7745C58.2246 20.7745 57.5874 20.9543 57.5874 21.174ZM62.7797 56.7304C62.4054 57.1699 61.7389 57.5294 61.299 57.5294C60.8586 57.5294 60.3743 57.7543 60.2227 58.0288C60.0028 58.4283 59.8923 58.4283 59.6724 58.0288C59.3457 57.4363 57.5874 57.3524 57.5874 57.9289C57.5874 58.1487 56.5253 58.3284 55.2273 58.3284C53.9292 58.3284 52.8671 58.5082 52.8671 58.7279C52.8671 58.9501 51.6082 59.1275 50.035 59.1275C48.4617 59.1275 47.2028 59.3048 47.2028 59.527C47.2028 60.1414 38.8328 60.0475 38.5897 59.4307C38.4495 59.0743 38.1635 59.1302 37.5725 59.6304C36.8423 60.2489 36.8295 60.3927 37.4587 60.9252C38.2598 61.6032 39.6503 61.7299 39.6503 61.125C39.6503 60.9053 40.0752 60.7255 40.5944 60.7255C41.1136 60.7255 41.5385 60.9053 41.5385 61.125C41.5385 61.3447 42.1757 61.5245 42.9545 61.5245C43.7334 61.5245 44.3706 61.7043 44.3706 61.924C44.3706 62.1438 44.7955 62.3235 45.3147 62.3235C45.9439 62.3235 46.2587 62.59 46.2587 63.1226C46.2587 63.562 46.4712 63.9216 46.7308 63.9216C46.9904 63.9216 47.2028 64.2416 47.2028 64.6323C47.2028 65.0234 47.6276 65.6023 48.1469 65.9191C48.6675 66.2367 49.0909 66.9535 49.0909 67.5172C49.0909 68.0809 49.5143 68.7976 50.035 69.1152C50.7524 69.5531 50.979 70.1495 50.979 71.6005C50.979 72.6505 51.1914 73.5098 51.451 73.5098C52.1997 73.5098 52.0831 90.9668 51.333 91.2245C50.8874 91.3771 50.9162 91.5397 51.451 91.8873C51.9859 92.2348 52.0146 92.3974 51.5691 92.55C51.2448 92.6615 50.979 93.2624 50.979 93.8848C50.979 94.5072 51.2448 95.1081 51.5691 95.2196C52.0132 95.3718 51.984 95.5284 51.451 95.852C50.8218 96.2339 50.8218 96.3298 51.451 96.7117C51.984 97.0353 52.0132 97.1919 51.5691 97.3442C50.8275 97.599 50.7123 107.868 51.451 107.868C52.1322 107.868 52.0331 109.356 51.333 109.632C50.861 109.818 50.861 109.912 51.333 110.098C51.7036 110.245 51.9231 111.177 51.9231 112.607C51.9231 114.424 51.7328 114.999 50.979 115.458C50.0062 116.052 49.6347 118.255 50.507 118.255C50.7666 118.255 50.979 118.614 50.979 119.054C50.979 119.493 50.7666 119.853 50.507 119.853C50.2474 119.853 50.035 120.213 50.035 120.652C50.035 121.091 49.8226 121.451 49.5629 121.451C49.3033 121.451 49.0909 121.99 49.0909 122.65C49.0909 123.309 48.8785 123.848 48.6189 123.848C48.3593 123.848 48.1469 124.208 48.1469 124.647C48.1469 125.087 47.9344 125.446 47.6748 125.446C47.4152 125.446 47.2028 125.806 47.2028 126.245C47.2028 126.685 46.9904 127.044 46.7308 127.044C46.4712 127.044 46.2587 127.763 46.2587 128.642V130.24H43.4266C41.1665 130.24 40.5944 130.367 40.5944 130.868C40.5944 132.189 41.842 132.637 45.5172 132.637C47.5851 132.637 49.0909 132.805 49.0909 133.037C49.0909 133.27 50.6642 133.436 52.8671 133.436C55.0701 133.436 56.6434 133.27 56.6434 133.037C56.6434 132.815 57.9023 132.637 59.4755 132.637C61.0488 132.637 62.3077 132.815 62.3077 133.037C62.3077 133.27 63.881 133.436 66.0839 133.436C68.2869 133.436 69.8601 133.27 69.8601 133.037C69.8601 132.817 70.6187 132.637 71.5458 132.637C72.4733 132.637 73.5505 132.368 73.9399 132.038C74.5691 131.505 74.5691 131.372 73.9399 130.839C73.5505 130.51 72.7768 130.24 72.2203 130.24C71.0322 130.24 69.8601 129.362 69.8601 128.471C69.8601 128.126 69.6477 127.843 69.3881 127.843C69.1285 127.843 68.9161 127.124 68.9161 126.245C68.9161 125.366 68.7037 124.647 68.4441 124.647C68.1844 124.647 67.972 124.288 67.972 123.848C67.972 123.409 67.7596 123.049 67.5 123.049C67.2404 123.049 67.028 122.51 67.028 121.85C67.028 121.191 66.8156 120.652 66.5559 120.652C66.2576 120.652 66.0839 117.855 66.0839 113.061C66.0839 108.267 65.9102 105.471 65.6119 105.471C65.3523 105.471 65.1399 104.751 65.1399 103.873C65.1399 102.994 65.3523 102.275 65.6119 102.275C65.9173 102.275 66.0839 97.4804 66.0839 88.6912C66.0839 79.902 66.2505 75.1078 66.5559 75.1078C66.8566 75.1078 67.028 71.8359 67.028 66.0905C67.028 56.3904 66.917 55.9314 64.5696 55.9314C63.9593 55.9314 63.154 56.2909 62.7797 56.7304ZM22.6573 73.1103C22.6573 73.33 22.3293 73.5098 21.9281 73.5098C21.5268 73.5098 20.6772 73.9513 20.0399 74.4906C19.4027 75.0299 18.8811 75.7491 18.8811 76.0886C18.8811 76.5081 18.4275 76.7059 17.465 76.7059C16.6862 76.7059 16.049 76.8857 16.049 77.1054C16.049 77.3251 16.2614 77.5049 16.521 77.5049C17.2375 77.5049 17.0851 79.4817 16.3185 80.1301C15.9479 80.4441 15.3107 80.701 14.9024 80.701C14.4946 80.701 14.1608 80.8808 14.1608 81.1005C14.1608 81.3202 14.3733 81.5 14.6329 81.5C14.8925 81.5 15.1049 81.8596 15.1049 82.299C15.1049 82.7385 15.3173 83.098 15.5769 83.098C15.8365 83.098 16.049 83.4576 16.049 83.8971C16.049 84.3365 15.8365 84.6961 15.5769 84.6961C15.2989 84.6961 15.1049 86.104 15.1049 88.1203C15.1049 91.644 15.5821 92.6863 17.1955 92.6863C17.6746 92.6863 17.9371 93.0446 17.9371 93.6982C17.9371 94.9898 20.8112 97.4804 22.3014 97.4804C22.9019 97.4804 23.6991 97.84 24.0734 98.2794C24.4477 98.7189 25.085 99.0784 25.4895 99.0784C25.894 99.0784 26.5313 99.438 26.9056 99.8775C27.2799 100.317 27.9639 100.676 28.426 100.676C28.8876 100.676 29.2657 100.856 29.2657 101.076C29.2657 101.296 30.3278 101.475 31.6259 101.475C32.924 101.475 33.986 101.655 33.986 101.875C33.986 102.095 34.4108 102.275 34.9301 102.275C35.4493 102.275 35.8741 102.454 35.8741 102.674C35.8741 102.894 36.299 103.074 36.8182 103.074C37.7325 103.074 37.7622 102.807 37.7622 94.6838V86.2941H33.042C30.2098 86.2941 28.3217 86.1343 28.3217 85.8946C28.3217 85.6749 27.988 85.4951 27.5801 85.4951C26.6701 85.4951 25.4895 84.5455 25.4895 83.814C25.4895 83.5171 25.0647 83.0153 24.5455 82.6985C23.726 82.1987 23.6014 81.6642 23.6014 78.6487C23.6014 76.26 23.786 75.1014 24.1914 74.9412C24.6635 74.7551 24.6635 74.6616 24.1914 74.4754C23.8671 74.3472 23.6014 73.8977 23.6014 73.4766C23.6014 73.0556 23.389 72.7108 23.1294 72.7108C22.8698 72.7108 22.6573 72.8906 22.6573 73.1103ZM21.7133 81.1005C21.7133 81.3202 21.5009 81.5 21.2413 81.5C20.9816 81.5 20.7692 81.3202 20.7692 81.1005C20.7692 80.8808 20.9816 80.701 21.2413 80.701C21.5009 80.701 21.7133 80.8808 21.7133 81.1005ZM81.1888 91.4546C81.1888 92.0954 80.9235 92.7246 80.5988 92.8529C80.1267 93.039 80.1267 93.1325 80.5988 93.3187C81.3134 93.6012 81.4243 98.2794 80.7168 98.2794C80.4572 98.2794 80.2448 99.1783 80.2448 100.277C80.2448 101.376 80.0323 102.275 79.7727 102.275C79.0378 102.275 79.2091 105.85 79.9752 106.498C80.3628 106.826 81.5664 107.069 82.8074 107.069C83.9941 107.069 84.965 107.248 84.965 107.468C84.965 107.688 85.6023 107.868 86.3811 107.868C87.16 107.868 87.7972 108.047 87.7972 108.267C87.7972 108.487 88.4344 108.667 89.2133 108.667C89.9921 108.667 90.6294 108.846 90.6294 109.066C90.6294 109.286 91.6447 109.466 92.8852 109.466C94.5996 109.466 95.3043 109.657 95.8217 110.265C96.2215 110.734 97.0438 111.064 97.8141 111.064C98.9569 111.064 99.1259 111.218 99.1259 112.262C99.1259 113.194 99.3354 113.461 100.07 113.461C100.699 113.461 101.014 113.727 101.014 114.26C101.014 114.792 101.329 115.059 101.958 115.059C102.477 115.059 102.902 115.239 102.902 115.458C102.902 115.678 103.236 115.858 103.644 115.858C104.701 115.858 105.734 116.851 105.734 117.866C105.734 118.343 106.371 119.237 107.15 119.853C108.642 121.032 108.962 122.027 107.976 122.417C107.504 122.603 107.504 122.696 107.976 122.882C108.384 123.043 108.566 124.219 108.566 126.678C108.566 128.786 108.759 130.24 109.038 130.24C109.298 130.24 109.51 130.6 109.51 131.039C109.51 131.479 109.298 131.838 109.038 131.838C108.776 131.838 108.566 132.904 108.566 134.235C108.566 135.567 108.357 136.632 108.094 136.632C107.835 136.632 107.622 136.992 107.622 137.431C107.622 137.871 107.41 138.23 107.15 138.23C106.891 138.23 106.678 138.59 106.678 139.029C106.678 139.469 106.466 139.828 106.206 139.828C105.947 139.828 105.734 140.548 105.734 141.426C105.734 142.305 105.522 143.025 105.262 143.025C105.003 143.025 104.79 143.667 104.79 144.451C104.79 146.135 103.908 147.02 102.228 147.02C101.329 147.02 101.014 147.227 101.014 147.819C101.014 148.351 100.699 148.618 100.07 148.618C99.5507 148.618 99.1259 148.797 99.1259 149.017C99.1259 149.237 99.3383 149.417 99.5979 149.417C99.8575 149.417 100.07 149.596 100.07 149.816C100.07 150.036 99.6451 150.216 99.1259 150.216C98.6066 150.216 98.1818 150.036 98.1818 149.816C98.1818 149.012 96.6378 149.448 95.3496 150.615C94.6223 151.274 93.6872 151.814 93.2723 151.814C92.8569 151.814 92.5175 151.994 92.5175 152.213C92.5175 152.433 92.1781 152.613 91.7627 152.613C91.3478 152.613 90.4127 153.152 89.6853 153.811C88.9579 154.47 88.0228 155.01 87.6079 155.01C87.168 155.01 86.8531 155.343 86.8531 155.809C86.8531 156.519 86.5383 156.608 84.021 156.608C82.4477 156.608 81.1888 156.785 81.1888 157.007C81.1888 157.227 80.3392 157.407 79.3007 157.407C78.2622 157.407 77.4126 157.587 77.4126 157.806C77.4126 158.026 76.9878 158.206 76.4685 158.206C75.9493 158.206 75.5245 158.386 75.5245 158.605C75.5245 158.828 74.2656 159.005 72.6923 159.005C71.119 159.005 69.8601 158.828 69.8601 158.605C69.8601 158.386 69.1073 158.206 68.1868 158.206C66.4573 158.206 64.1958 156.794 64.1958 155.715C64.1958 155.424 63.771 154.927 63.2517 154.61C62.7325 154.293 62.3077 153.715 62.3077 153.323C62.3077 152.933 62.0953 152.613 61.8357 152.613C61.576 152.613 61.3636 151.894 61.3636 151.015C61.3636 150.136 61.576 149.417 61.8357 149.417C62.0953 149.417 62.3077 148.698 62.3077 147.819V146.221H59.206C56.042 146.221 54.7552 146.722 54.7552 147.956C54.7552 148.284 54.49 148.656 54.1652 148.784C53.6932 148.97 53.6932 149.064 54.1652 149.25C54.8633 149.526 54.9686 151.814 54.2832 151.814C54.0236 151.814 53.8112 152.629 53.8112 153.625C53.8112 155.159 53.5605 155.648 52.1747 156.821C50.6415 158.118 50.3441 158.206 47.4544 158.206C45.7131 158.206 44.3706 158.032 44.3706 157.806C44.3706 157.587 43.7334 157.407 42.9545 157.407C42.1757 157.407 41.5385 157.227 41.5385 157.007C41.5385 156.788 40.9923 156.608 40.3249 156.608C38.9588 156.608 37.7622 155.782 37.7622 154.838C37.7622 154.477 37.362 154.211 36.8182 154.211C36.189 154.211 35.8741 153.944 35.8741 153.412C35.8741 152.746 35.5593 152.613 33.986 152.613C32.9476 152.613 32.0979 152.433 32.0979 152.213C32.0979 151.994 31.7198 151.814 31.2582 151.814C30.796 151.814 30.1121 151.454 29.7378 151.015C29.3634 150.575 28.7758 150.216 28.4321 150.216C27.6792 150.216 25.4895 148.432 25.4895 147.819C25.4895 147.247 23.3229 145.422 22.6451 145.422C21.9163 145.422 20.7692 144.394 20.7692 143.74C20.7692 143.444 20.3444 142.942 19.8252 142.625C19.3059 142.308 18.8811 141.769 18.8811 141.426C18.8811 141.084 18.4563 140.545 17.9371 140.228C17.1804 139.767 16.993 139.194 16.993 137.343C16.993 136.07 16.7811 135.034 16.521 135.034C15.8356 135.034 15.9409 132.747 16.639 132.471C17.111 132.285 17.111 132.191 16.639 132.005C15.8965 131.711 15.7813 120.652 16.521 120.652C16.7806 120.652 16.993 120.292 16.993 119.853C16.993 119.413 17.2054 119.054 17.465 119.054C17.7246 119.054 17.9371 118.587 17.9371 118.016C17.9371 117.377 18.4823 116.546 19.3531 115.858C20.132 115.242 20.7692 114.451 20.7692 114.1C20.7692 113.748 20.9816 113.461 21.2413 113.461C21.5009 113.461 21.7133 113.101 21.7133 112.662C21.7133 112.129 21.3984 111.863 20.7692 111.863C20.25 111.863 19.8252 112.043 19.8252 112.262C19.8252 112.482 19.4003 112.662 18.8811 112.662C18.3619 112.662 17.9371 112.842 17.9371 113.061C17.9371 113.281 17.2998 113.461 16.521 113.461C15.7421 113.461 15.1049 113.281 15.1049 113.061C15.1049 112.842 14.6801 112.662 14.1608 112.662C13.6241 112.662 13.2168 112.928 13.2168 113.279C13.2168 114.078 11.1144 115.858 10.1698 115.858C9.76862 115.858 9.44056 116.038 9.44056 116.257C9.44056 116.477 9.01573 116.657 8.4965 116.657C7.95273 116.657 7.55245 116.923 7.55245 117.285C7.55245 117.63 7.21447 118.199 6.80145 118.548C6.19348 119.063 5.97729 119.083 5.66434 118.654C5.35657 118.233 5.10262 118.274 4.41346 118.857C3.79982 119.376 3.71864 119.637 4.13449 119.754C4.98981 119.996 4.85622 121.451 3.97872 121.451C3.57042 121.451 2.93318 121.708 2.56264 122.022C1.78899 122.676 1.65918 123.848 2.36014 123.848C3.12955 123.848 2.89731 125.848 2.04388 126.57C1.47084 127.055 1.20273 127.102 1.06065 126.741C0.688218 125.795 0 126.251 0 127.444C0 128.103 0.212413 128.642 0.472028 128.642C0.731643 128.642 0.944056 129.002 0.944056 129.441C0.944056 129.881 0.731643 130.24 0.472028 130.24C0.212413 130.24 0 130.959 0 131.838C0 132.717 0.212413 133.436 0.472028 133.436C0.731643 133.436 0.944056 134.335 0.944056 135.434C0.944056 136.532 1.15647 137.431 1.41608 137.431C1.67853 137.431 1.88811 138.497 1.88811 139.828C1.88811 141.959 1.9929 142.225 2.83217 142.225C3.54965 142.225 3.77622 142.492 3.77622 143.336C3.77622 143.988 4.16612 144.684 4.72028 145.022C5.23951 145.339 5.66434 145.841 5.66434 146.137C5.66434 146.869 6.84488 147.819 7.75495 147.819C8.18166 147.819 8.4965 148.157 8.4965 148.618C8.4965 149.117 8.81135 149.417 9.33624 149.417C9.79836 149.417 10.4823 149.776 10.8566 150.216C11.231 150.655 11.83 151.015 12.1878 151.015C12.5451 151.015 13.4334 151.554 14.1608 152.213C14.9133 152.895 15.9678 153.412 16.6059 153.412C17.2234 153.412 18.0348 153.771 18.4091 154.211C18.7834 154.65 19.4674 155.01 19.9295 155.01C20.3911 155.01 20.7692 155.19 20.7692 155.409C20.7692 155.629 21.1473 155.809 21.609 155.809C22.0711 155.809 22.7551 156.168 23.1294 156.608C23.5046 157.049 24.3514 157.407 25.0175 157.407C25.6835 157.407 26.5303 157.765 26.9056 158.206C27.4711 158.87 28.1277 159.005 30.7861 159.005C32.6049 159.005 33.986 159.177 33.986 159.404C33.986 159.624 34.4108 159.804 34.9301 159.804C35.4493 159.804 35.8741 159.984 35.8741 160.203C35.8741 160.426 37.133 160.603 38.7063 160.603C40.2796 160.603 41.5385 160.78 41.5385 161.002C41.5385 161.223 42.7624 161.402 44.2663 161.402C46.4527 161.402 47.1296 161.561 47.6748 162.201C48.1922 162.808 48.8969 163 50.6113 163C51.8518 163 52.8671 162.82 52.8671 162.6C52.8671 162.381 53.5044 162.201 54.2832 162.201C55.0621 162.201 55.6993 162.381 55.6993 162.6C55.6993 162.853 58.9686 163 64.5635 163C72.8863 163 73.4697 162.951 74.1084 162.201C74.5082 161.732 75.3305 161.402 76.1008 161.402C76.8221 161.402 77.4126 161.222 77.4126 161.002C77.4126 160.783 77.7907 160.603 78.2523 160.603C78.7144 160.603 79.3984 160.243 79.7727 159.804C80.3528 159.123 80.9948 159.005 84.1253 159.005C86.2584 159.005 87.7972 158.838 87.7972 158.605C87.7972 158.386 88.4344 158.206 89.2133 158.206C89.9921 158.206 90.6294 158.026 90.6294 157.806C90.6294 157.587 90.9688 157.407 91.3841 157.407C91.799 157.407 92.7341 156.868 93.4615 156.208C94.214 155.526 95.2685 155.01 95.9066 155.01C96.524 155.01 97.3355 154.65 97.7098 154.211C98.0841 153.771 98.7681 153.412 99.2302 153.412C99.6918 153.412 100.07 153.232 100.07 153.012C100.07 152.793 100.448 152.613 100.91 152.613C101.372 152.613 102.056 152.253 102.43 151.814C102.804 151.374 103.488 151.015 103.95 151.015C104.412 151.015 104.79 150.835 104.79 150.615C104.79 150.395 105.116 150.216 105.514 150.216C106.397 150.216 109.51 147.65 109.51 146.921C109.51 146.633 109.935 146.138 110.455 145.821C110.974 145.504 111.399 144.925 111.399 144.534C111.399 144.144 111.611 143.824 111.871 143.824C112.13 143.824 112.343 143.464 112.343 143.025C112.343 142.492 112.657 142.225 113.287 142.225C113.877 142.225 114.231 141.959 114.231 141.515C114.231 141.124 114.656 140.545 115.175 140.228C115.694 139.911 116.119 139.23 116.119 138.713C116.119 137.634 117.126 136.632 118.209 136.632C118.785 136.632 118.951 136.185 118.951 134.635C118.951 132.904 119.077 132.637 119.895 132.637C120.682 132.637 120.839 132.371 120.839 131.039C120.839 130.16 121.052 129.441 121.311 129.441C121.571 129.441 121.783 128.722 121.783 127.843C121.783 126.512 121.94 126.245 122.727 126.245C123.638 126.245 123.671 125.979 123.671 118.654C123.671 113.86 123.498 111.064 123.199 111.064C122.94 111.064 122.727 110.704 122.727 110.265C122.727 109.825 122.515 109.466 122.255 109.466C121.996 109.466 121.783 108.926 121.783 108.267C121.783 107.608 121.571 107.069 121.311 107.069C121.052 107.069 120.839 106.35 120.839 105.471C120.839 104.592 120.627 103.873 120.367 103.873C120.108 103.873 119.895 103.513 119.895 103.074C119.895 102.634 119.683 102.275 119.423 102.275C119.163 102.275 118.951 101.915 118.951 101.475C118.951 100.976 118.636 100.676 118.111 100.676C117.649 100.676 116.965 100.317 116.591 99.8775C116.217 99.438 115.533 99.0784 115.071 99.0784C114.609 99.0784 114.231 98.8987 114.231 98.6789C114.231 98.0972 111.516 98.1887 111.266 98.7788C111.144 99.0692 110.881 99.13 110.637 98.9238C110.394 98.7177 110.465 98.4948 110.809 98.3913C111.804 98.0904 111.512 96.6814 110.455 96.6814C109.935 96.6814 109.51 96.5016 109.51 96.2819C109.51 96.0621 109.086 95.8824 108.566 95.8824C108.047 95.8824 107.622 95.7026 107.622 95.4828C107.622 95.2631 107.198 95.0833 106.678 95.0833C106.159 95.0833 105.734 94.9036 105.734 94.6838C105.734 94.4641 104.885 94.2843 103.846 94.2843C102.808 94.2843 101.958 94.1045 101.958 93.8848C101.958 93.6651 101.533 93.4853 101.014 93.4853C100.495 93.4853 100.07 93.3055 100.07 93.0858C100.07 92.8661 99.6918 92.6863 99.2302 92.6863C98.7681 92.6863 98.0841 92.3267 97.7098 91.8873C97.2359 91.3307 96.4877 91.0882 95.2453 91.0882C94.2645 91.0882 93.4615 90.9085 93.4615 90.6887C93.4615 90.1086 90.7587 90.1977 90.4325 90.7886C90.2126 91.1881 90.1021 91.1881 89.8821 90.7886C89.6919 90.4438 88.3032 90.2892 85.3979 90.2892H81.1888V91.4546ZM25.4895 109.066C25.4895 109.286 25.7019 109.466 25.9615 109.466C26.2212 109.466 26.4336 109.286 26.4336 109.066C26.4336 108.846 26.2212 108.667 25.9615 108.667C25.7019 108.667 25.4895 108.846 25.4895 109.066ZM59.745 114.831C60.1161 115.144 60.4196 115.863 60.4196 116.429C60.4196 116.994 60.632 117.456 60.8916 117.456C61.1512 117.456 61.3636 117.815 61.3636 118.255C61.3636 118.694 61.1512 119.054 60.8916 119.054C60.632 119.054 60.4196 119.696 60.4196 120.481C60.4196 122.098 59.5454 123.049 58.0594 123.049C57.5029 123.049 56.7444 122.792 56.3738 122.478C55.6077 121.83 55.4364 118.255 56.1713 118.255C56.4309 118.255 56.6434 117.895 56.6434 117.456C56.6434 117.016 56.8558 116.657 57.1154 116.657C57.375 116.657 57.5874 116.38 57.5874 116.041C57.5874 115.506 58.4828 114.319 58.919 114.275C59.0026 114.267 59.3745 114.517 59.745 114.831ZM12.2727 126.645C12.2727 126.864 12.0603 127.044 11.8007 127.044C11.5411 127.044 11.3287 126.864 11.3287 126.645C11.3287 126.425 11.5411 126.245 11.8007 126.245C12.0603 126.245 12.2727 126.425 12.2727 126.645Z" fill="#F86464"/>
</svg>
