<?xml version="1.0" encoding="iso-8859-1"?>
<!-- Generator: Adobe Illustrator 19.0.0, SVG Export Plug-In . SVG Version: 6.00 Build 0)  -->
<svg version="1.1" id="Capa_1" xmlns="http://www.w3.org/2000/svg" xmlns:xlink="http://www.w3.org/1999/xlink" x="0px" y="0px"
	 viewBox="0 0 511.996 511.996" style="enable-background:new 0 0 511.996 511.996;" xml:space="preserve">
<g>
	<g>
		<path d="M324.263,0.003c-4.71,0-8.533,3.823-8.533,8.533s3.823,8.533,8.533,8.533c94.106,0,170.667,76.561,170.667,170.667
			c0,4.71,3.823,8.533,8.533,8.533c4.71,0,8.533-3.823,8.533-8.533C511.996,84.218,427.781,0.003,324.263,0.003z"/>
	</g>
</g>
<g>
	<g>
		<path d="M324.263,51.203c-4.71,0-8.533,3.823-8.533,8.533s3.823,8.533,8.533,8.533c65.877,0,119.467,53.589,119.467,119.467
			c0,4.71,3.823,8.533,8.533,8.533s8.533-3.823,8.533-8.533C460.796,112.455,399.544,51.203,324.263,51.203z"/>
	</g>
</g>
<g>
	<g>
		<path d="M324.263,102.403c-4.71,0-8.533,3.823-8.533,8.533s3.823,8.533,8.533,8.533c37.641,0,68.267,30.626,68.267,68.267
			c0,4.71,3.823,8.533,8.533,8.533s8.533-3.823,8.533-8.533C409.596,140.683,371.316,102.403,324.263,102.403z"/>
	</g>
</g>
<g>
	<g>
		<path d="M461.76,320.216c-23.219-3.055-46.114-8.755-68.045-16.922c-21.231-7.962-45.363-2.825-61.525,13.124l-26.974,26.914
			c-56.559-33.348-103.808-80.503-137.242-136.951l26.991-26.931c15.957-16.102,21.112-40.209,13.133-61.397
			c-8.183-21.897-13.892-44.749-16.964-67.994c-4.088-28.817-29.047-50.167-58.223-50.057H58.253c-1.741,0-3.473,0.077-5.197,0.23
			C37.551,1.632,23.514,8.98,13.539,20.909C3.563,32.847-1.164,47.951,0.244,63.576c8.269,77.713,35.149,153.472,77.687,219.008
			c38.613,60.655,91.162,113.092,151.868,151.595c65.417,42.342,140.971,69.163,218.641,77.585c1.758,0.154,3.524,0.23,5.308,0.23
			c0.051,0,0.111,0,0.162,0c32.154-0.137,58.197-26.351,58.069-58.411v-74.402C512.653,349.69,491.124,324.346,461.76,320.216z
			 M127.996,51.203H58.262c-3.174,0.256-4.736,1.707-5.436,2.543c-0.435,0.529-1.843,2.398-1.647,4.557
			c3.098,29.09,8.73,57.506,16.725,84.318c1.348,4.514-1.22,9.267-5.734,10.615c-0.811,0.247-1.63,0.358-2.441,0.358
			c-3.678,0-7.074-2.398-8.175-6.093c-8.303-27.819-14.14-57.267-17.365-87.535c-0.768-8.602,3.618-14.865,5.538-17.161
			c2.389-2.859,7.706-7.791,16.393-8.576c0.708-0.06,1.417-0.094,2.125-0.094h69.743c4.719,0,8.533,3.831,8.533,8.542
			C136.53,47.388,132.707,51.203,127.996,51.203z M477.846,453.592c0.026,6.451-2.466,12.544-7.014,17.135
			c-4.54,4.582-10.598,7.117-17.058,7.142c-0.205,0-1.621-0.034-2.33-0.102c-30.345-3.294-59.554-9.114-86.955-17.323
			c-4.514-1.357-7.083-6.11-5.726-10.624c1.357-4.514,6.118-7.083,10.624-5.726c26.419,7.91,54.588,13.525,83.746,16.691
			l0.794,0.017c1.69-0.009,3.473-0.751,4.804-2.099c1.34-1.348,2.074-3.157,2.065-5.077l0.008-69.623
			c0-4.71,3.823-8.533,8.533-8.533s8.533,3.823,8.533,8.533L477.846,453.592z"/>
	</g>
</g>
<g>
</g>
<g>
</g>
<g>
</g>
<g>
</g>
<g>
</g>
<g>
</g>
<g>
</g>
<g>
</g>
<g>
</g>
<g>
</g>
<g>
</g>
<g>
</g>
<g>
</g>
<g>
</g>
<g>
</g>
</svg>
